# xmcd CD database file generated by Grip 3.0.5
# 
# Track frame offsets:
#       150
#       10182
#       28997
#       49152
#       60730
#       77202
#       90000
#       106672
#       122025
#       133477
#       148810
#       160330
#       182027
# 
# Disc length: 2705 seconds
# 
# Revision: 2
# Processed by: cddbd v1.4PL0 Copyright (c) Steve Scherf et al.
# Submitted via: Grip 3.0.5
# 
DISCID=af0a8f0d
DTITLE=Various Artist - Austin Country Nights
DYEAR=1995
DGENRE=Country
TTITLE0=Dale Watson - Girl, I Hope You're Having Fun
TTITLE1=Cornell Hurd Band - I Cry, Then I Drink, Then I Cry
TTITLE2=Jeff Hughes and Chaparral - Choose Only Love
TTITLE3=Ted Roddy - Honky-Tonk Hell
TTITLE4=Don Walser and The Pure Texas Band - Love Song Of The Waterfall
TTITLE5=Libbi Bosworth - Baby, Maybe Then I'll Love You
TTITLE6=Roy Heinrich - A Face In The Crowd
TTITLE7=Bruce Robison - Poor Man's Son
TTITLE8=Mary Cutrufello - Tonight I Know
TTITLE9=The Wagoneers - Down The Line
TTITLE10=The Derailers - Just One More Time
TTITLE11=Charlie Robison - Sunset Boulevard
TTITLE12=Area Code 512 - Waltz Across Texas
EXTD=
EXTT0=Dale Watson
EXTT1=Cornell Hurd Band
EXTT2=Jeff Hughes and Chaparral
EXTT3=Ted Roddy
EXTT4=Don Walser and the Pure Texas Band
EXTT5=Libbi Bosworth
EXTT6=Roy Heinrich
EXTT7=Bruce Robison
EXTT8=Mary Cutufello
EXTT9=The Wagoneers
EXTT10=The Derailers
EXTT11=Charlie Robison
EXTT12=Area Code 512
PLAYORDER=
